<svg width="105" height="24" viewBox="0 0 105 24" fill="none" xmlns="http://www.w3.org/2000/svg">
<g clip-path="url(#clip0_15_436)">
<path d="M30.3594 17.4002H37.171V15.4606H32.4365V6.40381H30.3594V17.4002Z" fill="#8B888A"/>
<path d="M41.2642 17.6293C42.0889 17.6293 42.8144 17.446 43.4406 17.0794C44.0718 16.7078 44.5631 16.1962 44.9144 15.5446C45.2707 14.8878 45.4489 14.1318 45.4489 13.2766C45.4489 12.4264 45.2733 11.6755 44.922 11.0238C44.5707 10.3671 44.0794 9.85293 43.4482 9.48129C42.822 9.10965 42.094 8.92383 41.2642 8.92383C40.4496 8.92383 39.7293 9.10713 39.1031 9.47367C38.4769 9.84021 37.9857 10.3518 37.6293 11.0086C37.2729 11.6602 37.0947 12.4162 37.0947 13.2766C37.0947 14.1267 37.2678 14.8802 37.614 15.5369C37.9653 16.1886 38.454 16.7002 39.0802 17.0718C39.7064 17.4435 40.4344 17.6293 41.2642 17.6293ZM41.2642 15.6897C40.6176 15.6897 40.1264 15.4733 39.7904 15.0406C39.4594 14.6028 39.294 14.0148 39.294 13.2766C39.294 12.5587 39.4518 11.9784 39.7675 11.5354C40.0882 11.0875 40.5871 10.8634 41.2642 10.8634C41.9209 10.8634 42.4147 11.0824 42.7456 11.5202C43.0816 11.958 43.2496 12.5434 43.2496 13.2766C43.2496 13.9842 43.0842 14.5645 42.7533 15.0177C42.4275 15.4656 41.9311 15.6897 41.2642 15.6897Z" fill="#8B888A"/>
<path d="M49.5568 17.6293C49.9437 17.6293 50.3 17.5834 50.6259 17.4918C50.9568 17.4002 51.2572 17.2704 51.527 17.1024V17.9347C51.5372 18.2402 51.4582 18.4947 51.2902 18.6984C51.1273 18.9071 50.9084 19.0624 50.6335 19.1642C50.3586 19.2711 50.0659 19.3246 49.7554 19.3246C49.4651 19.3246 49.1953 19.2609 48.9459 19.1337C48.7015 19.0064 48.5131 18.8206 48.3808 18.5762L46.4564 19.5078C46.772 20.0424 47.2226 20.4726 47.8081 20.7984C48.3935 21.1293 49.0375 21.2947 49.7401 21.2947C50.3459 21.2947 50.9084 21.2133 51.4277 21.0504C51.947 20.8926 52.3848 20.6508 52.7411 20.3249C53.1026 19.9991 53.3495 19.5842 53.4819 19.0802C53.5277 18.902 53.5582 18.7213 53.5735 18.538C53.5939 18.3598 53.6041 18.1689 53.6041 17.9653V9.15291H51.7866V9.61113C51.5066 9.39219 51.1884 9.22419 50.8321 9.10713C50.4808 8.98491 50.0914 8.92383 49.6637 8.92383C48.8746 8.92383 48.1873 9.11223 47.6019 9.48891C47.0164 9.86565 46.5608 10.3824 46.235 11.0391C45.9142 11.6907 45.7539 12.4366 45.7539 13.2766C45.7539 14.1013 45.9117 14.842 46.2274 15.4987C46.5481 16.1554 46.9935 16.6747 47.5637 17.0566C48.1339 17.4384 48.7982 17.6293 49.5568 17.6293ZM49.8928 15.7813C49.4448 15.7813 49.0783 15.6693 48.7931 15.4453C48.5081 15.2213 48.2968 14.9209 48.1594 14.5442C48.0219 14.1624 47.9531 13.7398 47.9531 13.2766C47.9531 12.8184 48.0244 12.4009 48.167 12.0242C48.3095 11.6424 48.5284 11.3395 48.8237 11.1154C49.124 10.8864 49.5059 10.7718 49.9691 10.7718C50.6208 10.7718 51.0866 11.0035 51.3666 11.4667C51.6466 11.9249 51.7866 12.5282 51.7866 13.2766C51.7866 14.0249 51.644 14.6307 51.359 15.094C51.079 15.5522 50.5903 15.7813 49.8928 15.7813Z" fill="#8B888A"/>
<path d="M58.5376 17.6293C59.3624 17.6293 60.0878 17.446 60.714 17.0794C61.3451 16.7078 61.8365 16.1962 62.1875 15.5446C62.5439 14.8878 62.7221 14.1318 62.7221 13.2766C62.7221 12.4264 62.5469 11.6755 62.1953 11.0238C61.8443 10.3671 61.3529 9.85293 60.7216 9.48129C60.0955 9.10965 59.3674 8.92383 58.5376 8.92383C57.7231 8.92383 57.0027 9.10713 56.3765 9.47367C55.7504 9.84021 55.2591 10.3518 54.9027 11.0086C54.5464 11.6602 54.3682 12.4162 54.3682 13.2766C54.3682 14.1267 54.5413 14.8802 54.8875 15.5369C55.2387 16.1886 55.7275 16.7002 56.3536 17.0718C56.9798 17.4435 57.7078 17.6293 58.5376 17.6293ZM58.5376 15.6897C57.8911 15.6897 57.3998 15.4733 57.0638 15.0406C56.7329 14.6028 56.5675 14.0148 56.5675 13.2766C56.5675 12.5587 56.7253 11.9784 57.0409 11.5354C57.3616 11.0875 57.8605 10.8634 58.5376 10.8634C59.1944 10.8634 59.6882 11.0824 60.0191 11.5202C60.3551 11.958 60.5231 12.5434 60.5231 13.2766C60.5231 13.9842 60.3576 14.5645 60.0267 15.0177C59.7009 15.4656 59.2045 15.6897 58.5376 15.6897Z" fill="#8B888A"/>
<path d="M63.6377 8.00702H65.7149V6.17432H63.6377V8.00702ZM63.6377 17.3998H65.7149V9.15248H63.6377V17.3998Z" fill="#8B888A"/>
<path d="M67.0723 21.0657H69.1645V17.1024C69.4345 17.2704 69.7321 17.4002 70.0579 17.4918C70.3891 17.5834 70.7479 17.6293 71.1349 17.6293C71.8933 17.6293 72.5581 17.4384 73.1281 17.0566C73.6981 16.6747 74.1409 16.1554 74.4565 15.4987C74.7775 14.842 74.9377 14.1013 74.9377 13.2766C74.9377 12.4366 74.7751 11.6907 74.4493 11.0391C74.1283 10.3824 73.6753 9.86565 73.0897 9.48891C72.5041 9.11223 71.8171 8.92383 71.0281 8.92383C70.6003 8.92383 70.2085 8.98491 69.8521 9.10713C69.5005 9.22419 69.1849 9.39219 68.9053 9.61113V9.15291H67.0723V21.0657ZM70.7989 15.7813C70.1065 15.7813 69.6181 15.5522 69.3325 15.094C69.0475 14.6307 68.9053 14.0249 68.9053 13.2766C68.9053 12.5282 69.0451 11.9249 69.3253 11.4667C69.6103 11.0035 70.0759 10.7718 70.7227 10.7718C71.1859 10.7718 71.5651 10.8864 71.8603 11.1154C72.1609 11.3395 72.3823 11.6424 72.5245 12.0242C72.6673 12.4009 72.7387 12.8184 72.7387 13.2766C72.7387 13.7398 72.6697 14.1624 72.5323 14.5442C72.3949 14.9209 72.1837 15.2213 71.8987 15.4453C71.6137 15.6693 71.2471 15.7813 70.7989 15.7813Z" fill="#8B888A"/>
<path d="M78.7015 17.6293C79.7803 17.6293 80.6257 17.3875 81.2365 16.9038C81.8473 16.4202 82.1527 15.7558 82.1527 14.9107C82.1527 14.2693 81.9541 13.7628 81.5575 13.3911C81.1651 13.0195 80.4985 12.7114 79.5565 12.4671C78.9151 12.3042 78.4363 12.1718 78.1207 12.07C77.8105 11.9682 77.6041 11.8689 77.5021 11.7722C77.4055 11.6755 77.3575 11.5558 77.3575 11.4133C77.3575 11.174 77.4715 10.9908 77.7007 10.8634C77.9353 10.7362 78.2431 10.6853 78.6247 10.7107C79.4341 10.7718 79.8775 11.118 79.9537 11.7493L82.0765 11.3674C81.9697 10.6191 81.6031 10.026 80.9767 9.58821C80.3509 9.14529 79.5517 8.92383 78.5791 8.92383C77.5813 8.92383 76.7845 9.15801 76.1887 9.62637C75.5935 10.0947 75.2953 10.726 75.2953 11.5202C75.2953 12.1515 75.5017 12.6504 75.9139 13.0169C76.3261 13.3784 77.0365 13.6889 78.0445 13.9486C78.6403 14.1064 79.0777 14.2336 79.3579 14.3304C79.6429 14.4271 79.8265 14.5264 79.9075 14.6282C79.9891 14.7249 80.0299 14.8548 80.0299 15.0177C80.0299 15.2773 79.9279 15.4809 79.7245 15.6286C79.5211 15.7711 79.2307 15.8424 78.8539 15.8424C78.3955 15.8424 78.0163 15.7329 77.7163 15.514C77.4211 15.2951 77.2297 14.9922 77.1433 14.6053L75.0205 14.926C75.1579 15.7864 75.5449 16.4533 76.1815 16.9267C76.8229 17.3951 77.6629 17.6293 78.7015 17.6293Z" fill="#8B888A"/>
<path d="M85.9843 17.6445C86.5801 17.6445 87.0991 17.5452 87.5425 17.3467C87.9853 17.1481 88.3567 16.8834 88.6573 16.5525V17.4001H90.4897V9.15283H88.3975V13.3376C88.3975 13.8467 88.3387 14.259 88.2217 14.5747C88.1101 14.8852 87.9649 15.1219 87.7867 15.2848C87.6085 15.4427 87.4177 15.5496 87.2137 15.6056C87.0103 15.6616 86.8195 15.6896 86.6413 15.6896C86.1985 15.6896 85.8547 15.5903 85.6105 15.3918C85.3711 15.1932 85.1977 14.9463 85.0909 14.6511C84.9841 14.3557 84.9205 14.0631 84.9001 13.7728C84.8797 13.4776 84.8695 13.2358 84.8695 13.0474V9.15283H82.7617V13.7805C82.7617 13.9179 82.7719 14.1369 82.7923 14.4372C82.8127 14.7376 82.8715 15.0711 82.9681 15.4376C83.0647 15.799 83.2249 16.1478 83.4493 16.4838C83.6785 16.8198 83.9965 17.0972 84.4039 17.3161C84.8107 17.535 85.3381 17.6445 85.9843 17.6445Z" fill="#8B888A"/>
<path d="M91.6924 17.3999H93.7846V12.4057C93.7846 11.9323 93.9142 11.548 94.174 11.2526C94.4386 10.9523 94.7872 10.8021 95.2204 10.8021C95.6734 10.8021 96.0274 10.9549 96.2818 11.2603C96.541 11.5607 96.6712 11.9832 96.6712 12.5279V17.3999H98.7484V12.4057C98.7484 11.9323 98.878 11.548 99.1378 11.2526C99.4024 10.9523 99.751 10.8021 100.184 10.8021C100.637 10.8021 100.991 10.9549 101.245 11.2603C101.505 11.5607 101.635 11.9832 101.635 12.5279V17.3999H103.712V11.9781C103.712 11.077 103.47 10.349 102.986 9.7941C102.508 9.23412 101.798 8.9541 100.856 8.9541C100.326 8.9541 99.8404 9.06864 99.397 9.29772C98.9542 9.52686 98.6008 9.83994 98.3356 10.237C98.122 9.85014 97.8166 9.53958 97.4194 9.3054C97.0222 9.07122 96.5284 8.9541 95.938 8.9541C95.4388 8.9541 94.981 9.0534 94.5634 9.25194C94.1458 9.44538 93.7996 9.71268 93.5248 10.0537V9.15264H91.6924V17.3999Z" fill="#8B888A"/>
<path d="M12.9375 0C6.31008 0 0.9375 5.37258 0.9375 12C7.56492 12 12.9375 6.62742 12.9375 0Z" fill="#8B888A"/>
<path d="M12.9375 24C19.5649 24 24.9375 18.6274 24.9375 12C18.3101 12 12.9375 17.3726 12.9375 24Z" fill="#8B888A"/>
<path d="M12.9375 0C19.5649 0 24.9375 5.37258 24.9375 12C18.3101 12 12.9375 6.62742 12.9375 0Z" fill="#8B888A"/>
<path d="M12.9375 24C6.31008 24 0.937499 18.6274 0.9375 12C7.56492 12 12.9375 17.3726 12.9375 24Z" fill="#8B888A"/>
</g>
<defs>
<clipPath id="clip0_15_436">
<rect width="103.2" height="24" fill="white" transform="translate(0.9375)"/>
</clipPath>
</defs>
</svg>
