<svg width="107" height="30" viewBox="0 0 107 30" fill="none" xmlns="http://www.w3.org/2000/svg">
<path d="M36.543 19.6138H38.8623V8.69922H36.543V19.6138Z" fill="#8B888A"/>
<path d="M43.6202 19.856C46.0456 19.856 47.6373 18.2946 47.6373 15.5357C47.6373 12.8677 46.0911 11.2002 43.6202 11.2002C41.1947 11.2002 39.6182 12.7616 39.6182 15.5357C39.6182 18.2189 41.1492 19.856 43.6202 19.856ZM43.6202 17.9763C42.5742 17.9763 41.9981 17.1122 41.9981 15.5357C41.9981 13.944 42.559 13.0799 43.6202 13.0799C44.6813 13.0799 45.2573 13.9591 45.2573 15.5357C45.2573 17.1274 44.6965 17.9763 43.6202 17.9763Z" fill="#8B888A"/>
<path d="M51.4107 19.6286C52.2899 19.6286 53.0176 19.2648 53.533 18.5524V19.9167C53.533 21.0536 52.9721 21.4326 52.1383 21.4326C51.3349 21.4326 50.7134 21.0384 50.6224 20.3108H48.3031C48.5911 22.2966 50.0919 23.2062 52.1687 23.2062C54.3061 23.2062 55.8523 22.0693 55.8523 19.8864V11.4579H53.533V12.2159C53.0327 11.5489 52.3203 11.2002 51.4107 11.2002C49.3794 11.2002 48.0605 12.7161 48.0605 15.4296C48.0605 18.0218 49.3491 19.6286 51.4107 19.6286ZM51.9716 17.7489C50.9711 17.7489 50.4405 16.9152 50.4405 15.4296C50.4405 13.8985 50.9711 13.0799 51.9716 13.0799C52.9872 13.0799 53.533 13.9137 53.533 15.4144C53.533 16.9303 53.0024 17.7489 51.9716 17.7489Z" fill="#8B888A"/>
<path d="M60.6231 19.856C63.0485 19.856 64.6403 18.2946 64.6403 15.5357C64.6403 12.8677 63.094 11.2002 60.6231 11.2002C58.1976 11.2002 56.6211 12.7616 56.6211 15.5357C56.6211 18.2189 58.1522 19.856 60.6231 19.856ZM60.6231 17.9763C59.5771 17.9763 59.0011 17.1122 59.0011 15.5357C59.0011 13.944 59.562 13.0799 60.6231 13.0799C61.6842 13.0799 62.2603 13.9591 62.2603 15.5357C62.2603 17.1274 61.6994 17.9763 60.6231 17.9763Z" fill="#8B888A"/>
<path d="M65.4121 10.6396H67.7317V8.69922H65.4121V10.6396ZM65.4121 19.6138H67.7317V11.4582H65.4121V19.6138Z" fill="#8B888A"/>
<path d="M71.1553 22.9637V18.7949C71.6404 19.4922 72.3377 19.856 73.2018 19.856C75.2786 19.856 76.6277 18.2947 76.6277 15.5205C76.6277 12.8525 75.3089 11.2002 73.2018 11.2002C72.3528 11.2002 71.6555 11.5943 71.1553 12.3068V11.4579H68.8359V22.9637H71.1553ZM72.7167 13.0799C73.702 13.0799 74.2477 13.944 74.2477 15.5205C74.2477 17.1122 73.7172 17.9763 72.7167 17.9763C71.701 17.9763 71.1553 17.0971 71.1553 15.5205C71.1553 13.944 71.6858 13.0799 72.7167 13.0799Z" fill="#8B888A"/>
<path d="M79.4132 13.7166C79.4132 13.277 79.8074 12.9738 80.4137 12.9738C81.2323 12.9738 81.7174 13.3225 81.8538 14.1562H84.158C83.9306 12.0946 82.445 11.2002 80.4895 11.2002C78.3066 11.2002 77.2 12.4736 77.2 13.8379C77.2 17.1122 82.1419 15.7024 82.1419 17.279C82.1419 17.7792 81.7326 18.0976 80.914 18.0976C80.0499 18.0976 79.4284 17.6883 79.3223 16.9303H77.0029C77.3061 18.9465 78.7917 19.856 80.8533 19.856C82.9756 19.856 84.4612 18.7494 84.4612 17.1426C84.4612 13.9137 79.4132 15.3235 79.4132 13.7166Z" fill="#8B888A"/>
<path d="M90.1754 16.1422C90.1754 17.1881 89.5993 17.9764 88.7049 17.9764C87.8863 17.9764 87.4922 17.461 87.4922 16.415V11.458H85.1729V16.885C85.1729 18.9163 86.3098 19.8561 87.856 19.8561C88.8414 19.8561 89.6448 19.4317 90.1754 18.5221V19.6136H92.4947V11.458H90.1754V16.1422Z" fill="#8B888A"/>
<path d="M93.6152 19.6135H95.9346V14.9293C95.9346 13.8834 96.4651 13.0799 97.2686 13.0799C98.0114 13.0799 98.3752 13.6105 98.3752 14.6413V19.6135H100.679V14.9293C100.679 13.8834 101.225 13.0799 102.029 13.0799C102.771 13.0799 103.12 13.6105 103.12 14.6413V19.6135H105.439V14.1714C105.439 12.1552 104.318 11.2002 102.802 11.2002C101.786 11.2002 100.922 11.6246 100.361 12.5494C99.9517 11.6398 99.1331 11.2002 98.163 11.2002C97.2231 11.2002 96.45 11.6095 95.9346 12.4887V11.4579H93.6152V19.6135Z" fill="#8B888A"/>
<path d="M27.7475 22.9439C30.26 20.7004 31.8007 17.6727 31.8007 14.3411C31.8007 7.42498 25.1613 1.81836 16.9711 1.81836C8.78102 1.81836 2.1416 7.42498 2.1416 14.3411C2.1416 21.2572 8.78102 26.8638 16.9711 26.8638C19.2946 26.8638 21.4934 26.4126 23.4511 25.6082C25.7508 27.0277 28.5683 28.048 31.68 27.8328C30.0361 27.4149 28.6221 25.7222 27.7475 22.9439Z" fill="#8B888A"/>
<path d="M27.8457 14.341C27.8457 19.4371 22.9768 23.5683 16.9707 23.5683C10.9646 23.5683 6.0957 19.4371 6.0957 14.341C6.0957 9.24495 10.9646 5.11377 16.9707 5.11377C22.9768 5.11377 27.8457 9.24495 27.8457 14.341Z" fill="#6A6969"/>
<path d="M23.8917 14.341C23.8917 17.6171 20.7933 20.2728 16.9712 20.2728C13.1492 20.2728 10.0508 17.6171 10.0508 14.341C10.0508 11.0649 13.1492 8.40918 16.9712 8.40918C20.7933 8.40918 23.8917 11.0649 23.8917 14.341Z" fill="#5E5E5E"/>
</svg>
