<svg width="44" height="48" viewBox="0 0 44 48" fill="none" xmlns="http://www.w3.org/2000/svg">
<path d="M41.5897 34.4095V28.4827C41.5897 23.4178 37.4838 19.3119 32.4188 19.3119H29.6658C27.7959 19.3119 26.2801 17.796 26.2801 15.9261V13.7593H16.925V15.9261C16.925 17.796 15.4092 19.3119 13.5393 19.3119H7.89746" stroke="#FD7E14" stroke-width="2" stroke-miterlimit="10" stroke-linecap="round" stroke-linejoin="round"/>
<path d="M7.89746 28.0811H14.9243C16.0115 30.6986 18.5915 32.5399 21.6025 32.5399C24.6134 32.5399 27.1936 30.6987 28.2807 28.0811H30.0296C31.5707 28.0811 32.8201 29.3304 32.8201 30.8715V34.4091" stroke="#FD7E14" stroke-width="2" stroke-miterlimit="10" stroke-linecap="round" stroke-linejoin="round"/>
<path d="M24.4033 7.1377V13.696" stroke="#FD7E14" stroke-width="2" stroke-miterlimit="10" stroke-linecap="round" stroke-linejoin="round"/>
<path d="M18.8022 13.696V7.1377" stroke="#FD7E14" stroke-width="2" stroke-miterlimit="10" stroke-linecap="round" stroke-linejoin="round"/>
<path d="M31.8848 34.4092H42.5257" stroke="#FD7E14" stroke-width="2" stroke-miterlimit="10" stroke-linecap="round" stroke-linejoin="round"/>
<path d="M41.1259 42.7947C41.1259 44.8943 39.4239 46.5964 37.3242 46.5964C35.2246 46.5964 33.5225 44.8944 33.5225 42.7947C33.5225 40.6951 37.3242 36.186 37.3242 36.186C37.3242 36.186 41.1259 40.695 41.1259 42.7947Z" stroke="#FD7E14" stroke-width="2" stroke-miterlimit="10" stroke-linecap="round" stroke-linejoin="round"/>
<path d="M28.2589 1.40332H14.9463V7.1378H28.2589V1.40332Z" stroke="#FD7E14" stroke-width="2" stroke-miterlimit="10" stroke-linecap="round" stroke-linejoin="round"/>
<path d="M7.89779 15.522H1.47412V31.8716H7.89779V15.522Z" stroke="#FD7E14" stroke-width="2" stroke-miterlimit="10" stroke-linecap="round" stroke-linejoin="round"/>
</svg>
