<svg width="40" height="40" viewBox="0 0 40 40" fill="none" xmlns="http://www.w3.org/2000/svg">
<path d="M38.8281 26.3281H24.7656L20 20.0781H34.0625L38.8281 26.3281Z" stroke="#FD7E14" stroke-width="2" stroke-miterlimit="10" stroke-linecap="round" stroke-linejoin="round"/>
<path d="M1.17188 26.3281H15.2344L20 20.0781H5.9375L1.17188 26.3281Z" stroke="#FD7E14" stroke-width="2" stroke-miterlimit="10" stroke-linecap="round" stroke-linejoin="round"/>
<path d="M20 20.0781V38.8281H34.0625V26.3281" stroke="#FD7E14" stroke-width="2" stroke-miterlimit="10" stroke-linecap="round" stroke-linejoin="round"/>
<path d="M30.5467 5.77305L29.8885 5.11484C28.7979 4.02422 27.0297 4.02422 25.9391 5.11484C24.8484 6.20539 24.8484 7.97359 25.9391 9.06422L30.5467 13.6719L35.1544 9.06422C36.245 7.97359 36.245 6.20539 35.1544 5.11484C34.0637 4.02422 32.2955 4.02422 31.2049 5.11484L30.5467 5.77305Z" stroke="#FD7E14" stroke-width="2" stroke-miterlimit="10" stroke-linecap="round" stroke-linejoin="round"/>
<path d="M5.9375 26.3281V38.8281H20V20.0781" stroke="#FD7E14" stroke-width="2" stroke-miterlimit="10" stroke-linecap="round" stroke-linejoin="round"/>
<path d="M21.4062 20.0781L27.6794 13.805C28.22 13.2644 28.5985 12.6235 28.8175 11.9425" stroke="#FD7E14" stroke-width="2" stroke-miterlimit="10" stroke-linecap="round" stroke-linejoin="round"/>
<path d="M25.359 5.96242C23.8692 5.64617 22.2544 6.06539 21.0972 7.22258L20.0001 8.31961L18.9031 7.22258C17.0854 5.40492 14.1384 5.40492 12.3208 7.22258C10.5031 9.04024 10.5031 11.9873 12.3208 13.8049L18.5939 20.0781" stroke="#FD7E14" stroke-width="2" stroke-miterlimit="10" stroke-linecap="round" stroke-linejoin="round"/>
<path d="M12.3206 7.22266C12.8544 6.68883 13.4858 6.31313 14.1571 6.09289C14.9004 4.8425 14.7343 3.20188 13.6585 2.12617C12.3861 0.853829 10.3232 0.853829 9.0509 2.12617L8.28293 2.89414L7.51504 2.12617C6.24262 0.853829 4.17973 0.853829 2.90738 2.12617C1.63504 3.39852 1.63504 5.46149 2.90738 6.73383L8.28293 12.1094L11.1289 9.26352C11.3365 8.51617 11.733 7.81023 12.3206 7.22266Z" stroke="#FD7E14" stroke-width="2" stroke-miterlimit="10" stroke-linecap="round" stroke-linejoin="round"/>
</svg>
