<svg width="41" height="40" viewBox="0 0 41 40" fill="none" xmlns="http://www.w3.org/2000/svg">
<path d="M12.5954 8.70312H6.85973L1.83887 18.7448H39.4951L34.4743 8.70312H28.7386" stroke="#FD7E14" stroke-width="2" stroke-miterlimit="10" stroke-linecap="round" stroke-linejoin="round"/>
<path d="M11.8809 13.724H29.4538" stroke="#FD7E14" stroke-width="2" stroke-miterlimit="10" stroke-linecap="round" stroke-linejoin="round"/>
<path d="M39.4951 18.7448H1.83887V38.8281H39.4951V18.7448Z" stroke="#FD7E14" stroke-width="2" stroke-miterlimit="10" stroke-linecap="round" stroke-linejoin="round"/>
<path d="M33.2194 25.0209H8.11523V32.5521H33.2194V25.0209Z" stroke="#FD7E14" stroke-width="2" stroke-miterlimit="10" stroke-linecap="round" stroke-linejoin="round"/>
<path d="M18.2278 13.724C15.6277 12.2146 11.8809 9.47133 11.8809 6.19273C11.8809 3.42125 14.1309 1.17188 16.9017 1.17188C18.4005 1.17188 19.7466 1.82961 20.6673 2.87266C21.588 1.82961 22.9342 1.17188 24.433 1.17188C27.2038 1.17188 29.4538 3.42125 29.4538 6.19273C29.4538 9.47133 25.707 12.2146 23.1069 13.724H18.2278Z" stroke="#FD7E14" stroke-width="2" stroke-miterlimit="10" stroke-linecap="round" stroke-linejoin="round"/>
</svg>
