<svg width="40" height="40" viewBox="0 0 40 40" fill="none" xmlns="http://www.w3.org/2000/svg">
<path d="M38.6611 20C38.6611 30.3553 30.1884 38.8281 19.833 38.8281C9.47762 38.8281 1.00488 30.3553 1.00488 20C1.00488 9.64469 9.47762 1.17188 19.833 1.17188C30.1884 1.17188 38.6611 9.64469 38.6611 20Z" stroke="#FD7E14" stroke-width="2" stroke-miterlimit="10"/>
<path d="M19.833 38.8281V1.17188" stroke="#FD7E14" stroke-width="2" stroke-miterlimit="10"/>
<path d="M29.208 20C29.208 30.3553 25.0107 38.8281 19.833 38.8281C14.6554 38.8281 10.458 30.3553 10.458 20C10.458 9.64469 14.6554 1.17188 19.833 1.17188C25.0107 1.17188 29.208 9.64469 29.208 20Z" stroke="#FD7E14" stroke-width="2" stroke-miterlimit="10"/>
<path d="M38.6611 20H1.00488" stroke="#FD7E14" stroke-width="2" stroke-miterlimit="10"/>
<path d="M35.3375 9.45312H4.32812" stroke="#FD7E14" stroke-width="2" stroke-miterlimit="10"/>
<path d="M35.3375 30.5469H4.32812" stroke="#FD7E14" stroke-width="2" stroke-miterlimit="10"/>
</svg>
