<svg width="48" height="42" viewBox="0 0 48 42" fill="none" xmlns="http://www.w3.org/2000/svg">
<path d="M32.8208 1.3999C29.4644 1.3999 26.3896 2.60168 24 4.59678C21.6105 2.60168 18.5356 1.3999 15.1793 1.3999C7.57256 1.3999 1.40625 7.56631 1.40625 15.173C1.40625 18.4197 2.61019 21.3421 4.40906 23.7586C7.81866 28.3389 24 40.2596 24 40.2596C24 40.2596 40.1813 28.3389 43.5909 23.7585C45.3898 21.342 46.5938 18.4197 46.5938 15.1729C46.5938 7.56631 40.4274 1.3999 32.8208 1.3999Z" stroke="#FD7E14" stroke-width="2" stroke-miterlimit="10"/>
<path d="M13.8729 19.8063C16.97 19.8063 19.4806 17.2956 19.4806 14.1986C19.4806 11.1015 16.97 8.59082 13.8729 8.59082C10.7758 8.59082 8.26514 11.1015 8.26514 14.1986C8.26514 17.2956 10.7758 19.8063 13.8729 19.8063Z" stroke="#FD7E14" stroke-width="2" stroke-miterlimit="10"/>
<path d="M20.8199 25.4972C20.1727 22.2518 17.3083 19.8062 13.8727 19.8062C9.96023 19.8062 6.78857 22.9778 6.78857 26.8903" stroke="#FD7E14" stroke-width="2" stroke-miterlimit="10"/>
<path d="M34.1273 19.8063C37.2244 19.8063 39.735 17.2956 39.735 14.1986C39.735 11.1015 37.2244 8.59082 34.1273 8.59082C31.0302 8.59082 28.5195 11.1015 28.5195 14.1986C28.5195 17.2956 31.0302 19.8063 34.1273 19.8063Z" stroke="#FD7E14" stroke-width="2" stroke-miterlimit="10"/>
<path d="M27.1802 25.4972C27.8273 22.2519 30.6918 19.8062 34.1273 19.8062C38.0398 19.8062 41.2115 22.9778 41.2115 26.8903" stroke="#FD7E14" stroke-width="2" stroke-miterlimit="10"/>
<path d="M24.0003 24.7443C27.0974 24.7443 29.6081 22.2336 29.6081 19.1366C29.6081 16.0395 27.0974 13.5288 24.0003 13.5288C20.9033 13.5288 18.3926 16.0395 18.3926 19.1366C18.3926 22.2336 20.9033 24.7443 24.0003 24.7443Z" stroke="#FD7E14" stroke-width="2" stroke-miterlimit="10"/>
<path d="M31.0843 34.9069V31.8283C31.0843 27.9158 27.9126 24.7441 24.0001 24.7441C20.0877 24.7441 16.916 27.9158 16.916 31.8283V34.9069" stroke="#FD7E14" stroke-width="2" stroke-miterlimit="10"/>
</svg>
