<svg width="41" height="40" viewBox="0 0 41 40" fill="none" xmlns="http://www.w3.org/2000/svg">
<path d="M29.8566 24.8911C31.5087 27.216 31.2926 30.461 29.2083 32.5453L23.2978 38.4558L22.603 37.761C20.496 35.654 19.621 32.7816 19.978 30.0388" stroke="#FD7E14" stroke-width="2" stroke-miterlimit="10" stroke-linecap="round" stroke-linejoin="round"/>
<path d="M15.3599 10.3613C13.0276 8.61209 9.70375 8.79818 7.58234 10.9195L1.67188 16.8301L2.36672 17.5249C4.47648 19.6347 7.35383 20.5092 10.0998 20.1484" stroke="#FD7E14" stroke-width="2" stroke-miterlimit="10" stroke-linecap="round" stroke-linejoin="round"/>
<path d="M37.6855 12.6308C35.2113 19.7343 30.0658 25.7739 23.1023 29.2926L21.9914 29.8539L15.6638 30.8225L9.30469 24.4634L10.2733 18.1358L10.4583 17.7697C14.1227 10.518 20.5091 5.25588 27.9627 2.90791C31.5447 1.77955 35.373 1.32354 39.2645 1.6444L39.3003 1.64737C39.4636 5.44893 38.8923 9.16635 37.6855 12.6308Z" stroke="#FD7E14" stroke-width="2" stroke-miterlimit="10" stroke-linecap="round" stroke-linejoin="round"/>
<path d="M28.0742 3.0199L37.5733 12.5189" stroke="#FD7E14" stroke-width="2" stroke-miterlimit="10" stroke-linecap="round" stroke-linejoin="round"/>
<path d="M24.5952 19.4982C26.528 19.4982 28.0948 17.9314 28.0948 15.9987C28.0948 14.0659 26.528 12.4991 24.5952 12.4991C22.6625 12.4991 21.0957 14.0659 21.0957 15.9987C21.0957 17.9314 22.6625 19.4982 24.5952 19.4982Z" stroke="#FD7E14" stroke-width="2" stroke-miterlimit="10" stroke-linecap="round" stroke-linejoin="round"/>
<path d="M21.8238 29.6861L10.4414 18.3036" stroke="#FD7E14" stroke-width="2" stroke-miterlimit="10" stroke-linecap="round" stroke-linejoin="round"/>
<path d="M9.29031 31.1614L5.51953 34.9322" stroke="#FD7E14" stroke-width="2" stroke-miterlimit="10" stroke-linecap="round" stroke-linejoin="round"/>
<path d="M5.93297 27.8048L2.16211 31.5756" stroke="#FD7E14" stroke-width="2" stroke-miterlimit="10" stroke-linecap="round" stroke-linejoin="round"/>
<path d="M12.6468 34.5182L8.87598 38.289" stroke="#FD7E14" stroke-width="2" stroke-miterlimit="10" stroke-linecap="round" stroke-linejoin="round"/>
</svg>
